<svg xmlns="http://www.w3.org/2000/svg" data-name="Layer 1" viewBox="0 0 151 40"><path fill="#0084ff" d="M0 0h151v40H0z"/><path fill="#fff" d="M18.98 20.55a4.33 4.33 0 0 0-.22-1.43 3.3 3.3 0 0 0-.63-1.12 2.9 2.9 0 0 0-1-.72 3.14 3.14 0 0 0-1.23-.25 3.11 3.11 0 0 0-1.23.25 2.93 2.93 0 0 0-1 .71 3.31 3.31 0 0 0-.61 1.11 4.41 4.41 0 0 0-.22 1.45v10.7a.69.69 0 0 1-.19.57.86.86 0 0 1-.58.18H7.52a.66.66 0 0 1-.75-.75V12.3a.66.66 0 0 1 .75-.75h2.87a1.11 1.11 0 0 1 .72.27 1.33 1.33 0 0 1 .44.65l.44 1.8a6.5 6.5 0 0 1 2.56-2.25 7.37 7.37 0 0 1 3.16-.67 8.15 8.15 0 0 1 1.44.14 6.19 6.19 0 0 1 2.94 1.44 5.92 5.92 0 0 1 1.3 1.5 8.48 8.48 0 0 1 2.81-2.29 7.41 7.41 0 0 1 3.36-.79 7 7 0 0 1 3.3.73 6.69 6.69 0 0 1 2.32 2 9 9 0 0 1 1.39 2.95 13.9 13.9 0 0 1 .41 3.61v10.63a.65.65 0 0 1-.75.73h-4.51a.65.65 0 0 1-.74-.73v-10.7a5 5 0 0 0-.19-1.44 2.93 2.93 0 0 0-.56-1.1 2.59 2.59 0 0 0-.92-.72 2.84 2.84 0 0 0-1.22-.26 3 3 0 0 0-1.26.25 2.84 2.84 0 0 0-1 .72 3.62 3.62 0 0 0-.64 1.1 4.37 4.37 0 0 0-.23 1.45v10.7a.64.64 0 0 1-.73.73h-4.51a.65.65 0 0 1-.74-.73zM52.32 12.33a.66.66 0 0 1 .19-.56.81.81 0 0 1 .58-.19h4.63a.66.66 0 0 1 .75.75v18.92a.66.66 0 0 1-.75.75h-3a1.07 1.07 0 0 1-.71-.28 1.2 1.2 0 0 1-.44-.64l-.46-1.78a7.25 7.25 0 0 1-3 2.37 7.8 7.8 0 0 1-1.69.5 9.28 9.28 0 0 1-1.73.16 8.35 8.35 0 0 1-1.49-.15 7.29 7.29 0 0 1-1.62-.54 7.43 7.43 0 0 1-1.63-1 6.13 6.13 0 0 1-1.4-1.61 8.67 8.67 0 0 1-1-2.32 11.84 11.84 0 0 1-.37-3.15V12.32a.65.65 0 0 1 .73-.74h4.53a.66.66 0 0 1 .74.74v10.81a3.4 3.4 0 0 0 .26 1.34 3.3 3.3 0 0 0 .73 1.11 3.57 3.57 0 0 0 1.15.77 3.88 3.88 0 0 0 1.52.28 4.25 4.25 0 0 0 1-.15 3.35 3.35 0 0 0 2.08-1.63 3.51 3.51 0 0 0 .39-1.75zM60.06 28.64a1 1 0 0 1-.14-.35.71.71 0 0 1 0-.38 1 1 0 0 1 .28-.41l2.25-2.2a.62.62 0 0 1 .43-.2 1 1 0 0 1 .62.3c.27.24.55.46.85.69a7.09 7.09 0 0 0 1 .58 5.63 5.63 0 0 0 1 .4 4 4 0 0 0 1.09.15 4.39 4.39 0 0 0 1.05-.11 1.76 1.76 0 0 0 .66-.3 1 1 0 0 0 .35-.45 1.47 1.47 0 0 0 .1-.56 1.32 1.32 0 0 0-.12-.59 1.24 1.24 0 0 0-.48-.45 5 5 0 0 0-1-.42c-.4-.15-.93-.31-1.59-.5a13.4 13.4 0 0 1-2.65-1.07 6.61 6.61 0 0 1-1.84-1.45 5.45 5.45 0 0 1-1.07-1.91 7.65 7.65 0 0 1-.35-2.44 5.14 5.14 0 0 1 .5-2.28 5.07 5.07 0 0 1 1.49-1.81 7.29 7.29 0 0 1 2.4-1.19 11.09 11.09 0 0 1 3.24-.44 8.7 8.7 0 0 1 2.36.29 8 8 0 0 1 1.77.71 7.77 7.77 0 0 1 1.34.95c.39.33.74.65 1.06.95a1 1 0 0 1 .36.59c0 .19-.11.4-.37.63L72.2 17.5a.87.87 0 0 1-.52.25.92.92 0 0 1-.53-.26l-.58-.47a3.7 3.7 0 0 0-.62-.41 3.89 3.89 0 0 0-.75-.28 3.68 3.68 0 0 0-.92-.11 2.64 2.64 0 0 0-1.41.3.82.82 0 0 0-.25 1.29 1.92 1.92 0 0 0 .7.42 11.84 11.84 0 0 0 1.29.41c.54.15 1.19.36 2 .61a9 9 0 0 1 2.6 1.27 6.19 6.19 0 0 1 1.55 1.62 5.23 5.23 0 0 1 .75 1.8 9 9 0 0 1 .2 1.85 5.79 5.79 0 0 1-.66 2.8 6.36 6.36 0 0 1-1.75 2.07 7.94 7.94 0 0 1-2.49 1.28 9.4 9.4 0 0 1-2.9.45 13.77 13.77 0 0 1-2-.15 8.38 8.38 0 0 1-2-.55 8.68 8.68 0 0 1-1.9-1 8 8 0 0 1-1.72-1.67c-.08-.12-.15-.23-.23-.38zM77.68 17.77a10.67 10.67 0 0 1 2.26-3.33 10.54 10.54 0 0 1 7.45-3.06 10.3 10.3 0 0 1 4.11.83 10.58 10.58 0 0 1 5.62 5.57 10.45 10.45 0 0 1 0 8.14 10.62 10.62 0 0 1-5.62 5.59 10.66 10.66 0 0 1-8.2 0 10.88 10.88 0 0 1-3.35-2.24 10.6 10.6 0 0 1-2.26-3.34 10.22 10.22 0 0 1-.82-4.08 10.08 10.08 0 0 1 .81-4.08zm5.39 6a5.18 5.18 0 0 0 .95 1.63 4.6 4.6 0 0 0 1.46 1.11 4.45 4.45 0 0 0 1.91.4 4.34 4.34 0 0 0 1.9-.41 4.64 4.64 0 0 0 1.47-1.12 5.05 5.05 0 0 0 .95-1.62 5.81 5.81 0 0 0 0-3.86 5.22 5.22 0 0 0-.94-1.62 4.43 4.43 0 0 0-1.46-1.11 4.37 4.37 0 0 0-1.9-.41 4.42 4.42 0 0 0-1.91.41 4.58 4.58 0 0 0-1.47 1.1 4.92 4.92 0 0 0-1 1.61 5.73 5.73 0 0 0 0 3.89zM99.64 27.28a.6.6 0 0 1 .2-.5.68.68 0 0 1 .44-.16h4.43a.65.65 0 0 1 .33.07.51.51 0 0 1 .2.18.84.84 0 0 1 .1.22 1.41 1.41 0 0 1 0 .18v4.1a.61.61 0 0 1-.08.32.64.64 0 0 1-.41.28h-4.75a.51.51 0 0 1-.22-.09.47.47 0 0 1-.18-.19.61.61 0 0 1-.08-.32zM106.92 28.64a1 1 0 0 1-.14-.35.82.82 0 0 1 0-.38 1.2 1.2 0 0 1 .29-.41l2.25-2.2a.6.6 0 0 1 .43-.2 1 1 0 0 1 .62.3c.26.24.55.46.85.69a6.51 6.51 0 0 0 1 .58 5.36 5.36 0 0 0 1 .4 4 4 0 0 0 1.08.15 4.27 4.27 0 0 0 1-.11 1.81 1.81 0 0 0 .67-.3 1.06 1.06 0 0 0 .35-.45 1.47 1.47 0 0 0 .1-.56 1 1 0 0 0-.6-1 5 5 0 0 0-1-.42c-.4-.15-.93-.31-1.59-.5a13.16 13.16 0 0 1-2.65-1.07 6.61 6.61 0 0 1-1.84-1.45 5.63 5.63 0 0 1-1.08-1.91 7.94 7.94 0 0 1-.35-2.44 5.15 5.15 0 0 1 .51-2.28 5 5 0 0 1 1.57-1.82 7.23 7.23 0 0 1 2.39-1.19 11.16 11.16 0 0 1 3.25-.44 8.76 8.76 0 0 1 2.36.29 8 8 0 0 1 1.77.71 7.77 7.77 0 0 1 1.34.95c.39.33.74.65 1.06.95a1 1 0 0 1 .36.59c0 .19-.11.4-.38.63l-2.45 2.13a.85.85 0 0 1-.51.25.94.94 0 0 1-.54-.26l-.57-.47a3.59 3.59 0 0 0-1.37-.69 3.68 3.68 0 0 0-.92-.11 2.59 2.59 0 0 0-1.41.3.83.83 0 0 0-.46.68.85.85 0 0 0 .21.61 1.92 1.92 0 0 0 .7.42 11.84 11.84 0 0 0 1.29.41c.53.15 1.19.36 2 .61a9.13 9.13 0 0 1 2.6 1.27 6.36 6.36 0 0 1 1.55 1.62 5.65 5.65 0 0 1 .75 1.8 9 9 0 0 1 .2 1.85 5.79 5.79 0 0 1-.66 2.8 6.36 6.36 0 0 1-1.75 2.07 7.94 7.94 0 0 1-2.49 1.28 9.45 9.45 0 0 1-2.9.45 14 14 0 0 1-2-.15 8.64 8.64 0 0 1-2-.55 8.91 8.91 0 0 1-1.9-1 8.15 8.15 0 0 1-1.71-1.67 2.75 2.75 0 0 1-.28-.41zM136.12 19.87l8.4 10.91a.88.88 0 0 1 .2.45.7.7 0 0 1-.05.39.68.68 0 0 1-.25.28.77.77 0 0 1-.4.1h-5.3a.87.87 0 0 1-.56-.16 2.24 2.24 0 0 1-.48-.54l-5.36-7.48-1.87 1.93v5.57a.6.6 0 0 1-.68.68h-4.74a.6.6 0 0 1-.68-.68v-25a.61.61 0 0 1 .68-.69h4.74a.61.61 0 0 1 .68.69v12.25l5.77-6.47a1.42 1.42 0 0 1 .6-.44 2.35 2.35 0 0 1 .65-.08h4.73a.87.87 0 0 1 .5.13.72.72 0 0 1 .29.31.68.68 0 0 1 .07.37.6.6 0 0 1-.18.34z"/></svg>